<?xml version="1.0" encoding="UTF-8"?>
<svg width="164px" height="45px" viewBox="0 0 164 45" version="1.1" xmlns="http://www.w3.org/2000/svg" xmlns:xlink="http://www.w3.org/1999/xlink">
    <title>Artboard</title>
    <g id="Artboard" stroke="none" stroke-width="1" fill="none" fill-rule="evenodd">
        <g id="devfest-chennai">
            <path d="M13.9206,19.9206 L10.9206,21.5556 L9.9524,19.4444 C8.9524,20.6667 7.4762,21.5556 5.5556,21.5556 C1.9048,21.5556 0,18.5238 0,13.8572 C0,8.7778 2.254,6.0317 5.8413,6.0317 C7.5238,6.0317 8.8413,6.6667 9.6984,7.8413 L9.6984,0.3651 L12.7778,0.3651 L12.7778,17.6508 L13.9206,19.9206 Z M9.6984,17.8571 L9.6984,9.9048 C8.9048,9.254 7.9048,8.8572 6.8413,8.8572 C4.5714,8.8572 3.2222,10.5873 3.2222,13.873 C3.2222,17 4.4762,18.746 6.7937,18.746 C7.8254,18.746 8.873,18.3968 9.6984,17.8571 Z" id="Shape" fill="#000000"></path>
            <path d="M29.2064,14.1429 L19.1111,14.1429 C19.3016,16.7302 21.3333,18.4762 24.5238,18.4762 C26.1587,18.4762 27.9206,18.127 29.127,17.5079 L28.1429,20.6667 C27.1587,21.2064 25.4762,21.5556 23.5238,21.5556 C18.9365,21.5556 15.9206,18.4444 15.9206,13.7143 C15.9206,8.9524 18.7936,6.0317 23.381,6.0317 C27.1746,6.0317 29.5714,8.2064 29.5714,11.7143 C29.5714,12.5079 29.4286,13.4603 29.2064,14.1429 Z M19.2857,12 L26.5556,12 C26.4127,9.7778 25.3492,8.7143 23.381,8.7143 C21.254,8.7143 19.7619,9.9524 19.2857,12 Z" id="Shape" fill="#000000"></path>
            <polygon id="Path" fill="#000000" fill-rule="nonzero" points="36.6984 21.1905 30.8889 6.4127 34.2857 6.4127 38.0794 16.7302 38.5079 18.0159 38.619 18.0159 39.0476 16.7302 42.8095 6.4127 46.1429 6.4127 40.3492 21.1905"></polygon>
            <path d="M56.2381,6.4444 L62.9206,6.4444 L62.4921,8.8095 L55.8095,8.8095 L53.4762,22.0953 C52.8254,25.8095 50.3333,27.2064 46.8571,27.2064 C45.254,27.2064 44.5238,26.9683 43.7143,26.7937 L43.6667,24.4127 C44.4603,24.5556 45.3968,24.6349 46.7143,24.6349 C48.7937,24.6349 50.1587,23.8095 50.4762,22.0635 L52.8254,8.8095 L48.1746,8.8095 L48.6032,6.4444 L53.2381,6.4444 L53.4762,5.0635 C54.127,1.3968 56.5873,0 60.0318,0 C61.6667,0 62.4921,0.2222 63.2064,0.3968 L63.254,2.8413 C62.4603,2.6508 61.5238,2.5556 60.2063,2.5556 C58.1587,2.5556 56.7778,3.381 56.4762,5.127 L56.2381,6.4444 Z" id="Path" fill="#000000" fill-rule="nonzero"></path>
            <path d="M76.6825,14.1429 L66.5873,14.1429 C66.7937,16.7302 68.8095,18.4762 72.0159,18.4762 C73.6349,18.4762 75.4127,18.127 76.6032,17.5079 L75.6349,20.6667 C74.6349,21.2064 72.9524,21.5556 71.0159,21.5556 C66.4286,21.5556 63.3968,18.4444 63.3968,13.7143 C63.3968,8.9524 66.2857,6.0317 70.873,6.0317 C74.6667,6.0317 77.0635,8.2064 77.0635,11.7143 C77.0635,12.5079 76.9206,13.4603 76.6825,14.1429 Z M66.7619,12 L74.0318,12 C73.8889,9.7778 72.8413,8.7143 70.873,8.7143 C68.7302,8.7143 67.254,9.9524 66.7619,12 Z" id="Shape" fill="#000000"></path>
            <path d="M80,20.3016 L79.7937,16.9841 C81.1111,17.9048 83.508,18.6984 86.016,18.6984 C87.921,18.6984 89.286,18.0952 89.286,16.7619 C89.286,13.9683 80.1111,16.5556 80.1111,10.8571 C80.1111,8.2064 82.111,5.9524 86.873,5.9524 C89.778,5.9524 92,6.6667 92,8.4286 C92,8.9841 91.778,9.4286 91.54,9.8571 C90.286,9.254 88.317,8.8413 86.667,8.8413 C84.381,8.8413 83.19,9.6825 83.19,10.6349 C83.19,13.1111 92.492,10.9365 92.492,16.5079 C92.492,19.619 89.746,21.5556 85.667,21.5556 C82.905,21.5556 80.8254,20.6667 80,20.3016 Z" id="Path" fill="#000000" fill-rule="nonzero"></path>
            <path d="M108.365,18.0476 L107.746,20.9206 C107,21.2381 105.524,21.5556 104.159,21.5556 C100.476,21.5556 98.905,19.6349 98.905,16.9365 L98.905,9 L94.714,9 L94.714,6.4127 L98.905,6.4127 L98.905,2.3651 L101.984,2.3651 L101.984,6.4127 L107.952,6.4127 L107.952,9 L101.984,9 L101.984,16 C101.984,17.9048 102.984,18.7619 104.714,18.7619 C105.714,18.7619 107.54,18.5238 108.365,18.0476 Z" id="Path" fill="#000000" fill-rule="nonzero"></path>
            <path d="M124.508,19.7302 L124.508,21.1905 L114.429,21.1905 L114.429,19.6667 C118.889,15.9048 121.873,13.746 121.873,10.7619 C121.873,8.6349 120.444,7.6825 118.492,7.6825 C116.984,7.6825 115.667,8.3333 114.984,8.8889 C114.746,8.746 114.476,8.4444 114.476,8 C114.476,6.8889 116.381,6.0635 118.603,6.0635 C121.651,6.0635 123.619,7.6825 123.619,10.6191 C123.619,14.2698 120.571,16.5714 116.508,19.7302 L124.508,19.7302 Z" id="Path" fill="#80868B" fill-rule="nonzero"></path>
            <path d="M127.016,13.7619 C127.016,8.6984 129.095,6.0635 132.524,6.0635 C135.905,6.0635 138.032,8.6984 138.032,13.7619 C138.032,18.8254 135.905,21.4603 132.524,21.4603 C129.095,21.4603 127.016,18.8254 127.016,13.7619 Z M136.254,13.7619 C136.254,9.6984 134.921,7.6825 132.524,7.6825 C130.095,7.6825 128.778,9.6984 128.778,13.7619 C128.778,17.8254 130.095,19.8571 132.524,19.8571 C134.921,19.8571 136.254,17.8254 136.254,13.7619 Z M131.317,14.8889 L131.317,12.5714 L133.651,12.5714 L133.651,14.8889 L131.317,14.8889 Z" id="Shape" fill="#80868B"></path>
            <path d="M150.667,19.7302 L150.667,21.1905 L140.587,21.1905 L140.587,19.6667 C145.048,15.9048 148.032,13.746 148.032,10.7619 C148.032,8.6349 146.603,7.6825 144.651,7.6825 C143.143,7.6825 141.81,8.3333 141.143,8.8889 C140.905,8.746 140.619,8.4444 140.619,8 C140.619,6.8889 142.54,6.0635 144.746,6.0635 C147.81,6.0635 149.778,7.6825 149.778,10.6191 C149.778,14.2698 146.73,16.5714 142.667,19.7302 L150.667,19.7302 Z" id="Path" fill="#80868B" fill-rule="nonzero"></path>
            <path d="M163.746,19.7302 L163.746,21.1905 L153.667,21.1905 L153.667,19.6667 C158.127,15.9048 161.111,13.746 161.111,10.7619 C161.111,8.6349 159.683,7.6825 157.73,7.6825 C156.206,7.6825 154.889,8.3333 154.222,8.8889 C153.984,8.746 153.698,8.4444 153.698,8 C153.698,6.8889 155.619,6.0635 157.825,6.0635 C160.889,6.0635 162.841,7.6825 162.841,10.6191 C162.841,14.2698 159.81,16.5714 155.746,19.7302 L163.746,19.7302 Z" id="Path" fill="#80868B" fill-rule="nonzero"></path>
        </g>
        <g id="Goa" transform="translate(139.947667, 34.752000)" fill="#4285F4" fill-rule="nonzero">
            <path d="M5.194,10.472 C4.25133333,10.472 3.381,10.2433333 2.583,9.786 C1.785,9.32866667 1.155,8.69866667 0.693,7.896 C0.231,7.09333333 0,6.20666667 0,5.236 C0,4.26533333 0.231,3.37866667 0.693,2.576 C1.155,1.77333333 1.785,1.14333333 2.583,0.686 C3.381,0.228666667 4.25133333,0 5.194,0 C5.93133333,0 6.62433333,0.130666667 7.273,0.392 C7.92166667,0.653333333 8.456,1.022 8.876,1.498 L8.022,2.352 C7.70466667,1.96 7.29633333,1.659 6.797,1.449 C6.29766667,1.239 5.76333333,1.134 5.194,1.134 C4.494,1.134 3.83833333,1.30433333 3.227,1.645 C2.61566667,1.98566667 2.12566667,2.46633333 1.757,3.087 C1.38833333,3.70766667 1.204,4.424 1.204,5.236 C1.204,6.048 1.38833333,6.76433333 1.757,7.385 C2.12566667,8.00566667 2.61566667,8.48633333 3.227,8.827 C3.83833333,9.16766667 4.494,9.338 5.194,9.338 C5.866,9.338 6.42833333,9.233 6.881,9.023 C7.33366667,8.813 7.728,8.53533333 8.064,8.19 C8.30666667,7.92866667 8.50266667,7.61133333 8.652,7.238 C8.80133333,6.86466667 8.89,6.45866667 8.918,6.02 L5.222,6.02 L5.222,4.914 L10.038,4.914 C10.0846667,5.17533333 10.108,5.418 10.108,5.642 C10.108,6.258 10.01,6.85766667 9.814,7.441 C9.618,8.02433333 9.30533333,8.53533333 8.876,8.974 C7.93333333,9.97266667 6.706,10.472 5.194,10.472 Z" id="Path"></path>
            <path d="M13.9222222,10.472 C13.2408889,10.472 12.6295556,10.311 12.0882222,9.989 C11.5468889,9.667 11.1245556,9.22366667 10.8212222,8.659 C10.5178889,8.09433333 10.3662222,7.46666667 10.3662222,6.776 C10.3662222,6.08533333 10.5178889,5.45766667 10.8212222,4.893 C11.1245556,4.32833333 11.5468889,3.885 12.0882222,3.563 C12.6295556,3.241 13.2408889,3.08 13.9222222,3.08 C14.6035556,3.08 15.2172222,3.241 15.7632222,3.563 C16.3092222,3.885 16.7338889,4.32833333 17.0372222,4.893 C17.3405556,5.45766667 17.4922222,6.08533333 17.4922222,6.776 C17.4922222,7.46666667 17.3405556,8.09433333 17.0372222,8.659 C16.7338889,9.22366667 16.3092222,9.667 15.7632222,9.989 C15.2172222,10.311 14.6035556,10.472 13.9222222,10.472 Z M13.9222222,9.394 C14.3422222,9.394 14.7342222,9.28666667 15.0982222,9.072 C15.4622222,8.85733333 15.7538889,8.55166667 15.9732222,8.155 C16.1925556,7.75833333 16.3022222,7.29866667 16.3022222,6.776 C16.3022222,6.25333333 16.1925556,5.79366667 15.9732222,5.397 C15.7538889,5.00033333 15.4622222,4.69466667 15.0982222,4.48 C14.7342222,4.26533333 14.3422222,4.158 13.9222222,4.158 C13.5115556,4.158 13.1242222,4.26533333 12.7602222,4.48 C12.3962222,4.69466667 12.1045556,5.00033333 11.8852222,5.397 C11.6658889,5.79366667 11.5562222,6.25333333 11.5562222,6.776 C11.5562222,7.29866667 11.6658889,7.75833333 11.8852222,8.155 C12.1045556,8.55166667 12.3962222,8.85733333 12.7602222,9.072 C13.1242222,9.28666667 13.5115556,9.394 13.9222222,9.394 Z" id="Shape"></path>
            <path d="M20.3124444,10.472 C19.8084444,10.472 19.3534444,10.3716667 18.9474444,10.171 C18.5414444,9.97033333 18.2241111,9.69033333 17.9954444,9.331 C17.7667778,8.97166667 17.6524444,8.568 17.6524444,8.12 C17.6524444,7.38266667 17.9301111,6.80866667 18.4854444,6.398 C19.0407778,5.98733333 19.7524444,5.782 20.6204444,5.782 C21.0497778,5.782 21.4371111,5.82866667 21.7824444,5.922 C22.1277778,6.01533333 22.4031111,6.118 22.6084444,6.23 L22.6084444,5.866 C22.6084444,5.53 22.5221111,5.229 22.3494444,4.963 C22.1767778,4.697 21.9457778,4.49166667 21.6564444,4.347 C21.3671111,4.20233333 21.0544444,4.13 20.7184444,4.13 C19.9251111,4.13 19.3184444,4.452 18.8984444,5.096 L17.9044444,4.438 C18.1937778,4.00866667 18.5764444,3.675 19.0524444,3.437 C19.5284444,3.199 20.0651111,3.08 20.6624444,3.08 C21.6144444,3.08 22.3657778,3.33666667 22.9164444,3.85 C23.4671111,4.36333333 23.7424444,5.054 23.7424444,5.922 L23.7424444,10.248 L22.6084444,10.248 L22.6084444,9.226 L22.5524444,9.226 C22.3284444,9.58066667 22.0251111,9.877 21.6424444,10.115 C21.2597778,10.353 20.8164444,10.472 20.3124444,10.472 Z M20.4104444,9.422 C20.7837778,9.422 21.1384444,9.324 21.4744444,9.128 C21.8104444,8.932 22.0834444,8.666 22.2934444,8.33 C22.5034444,7.994 22.6084444,7.63 22.6084444,7.238 C22.0857778,6.902 21.4837778,6.734 20.8024444,6.734 C20.2144444,6.734 19.7454444,6.867 19.3954444,7.133 C19.0454444,7.399 18.8704444,7.73733333 18.8704444,8.148 C18.8704444,8.52133333 19.0244444,8.827 19.3324444,9.065 C19.6404444,9.303 19.9997778,9.422 20.4104444,9.422 Z" id="Shape"></path>
        </g>
    </g>
</svg>